<svg xmlns="http://www.w3.org/2000/svg" viewBox="0 0 192 192" width="192" height="192">
  <rect width="192" height="192" rx="40" fill="#ff6f59"/>
  <g fill="#fff">
    <path d="M40 62c0-6 5-11 11-11h34c8 0 14 4 15 9v66c-2-4-8-7-15-7H40V62z"/>
    <path d="M152 62c0-6-5-11-11-11h-34c-8 0-14 4-15 9v66c2-4 8-7 15-7h45V62z" opacity="0.85"/>
  </g>
  <circle cx="150" cy="146" r="30" fill="#ffe3dc"/>
  <circle cx="150" cy="146" r="30" fill="none" stroke="#e0563f" stroke-width="5"/>
  <line x1="150" y1="146" x2="150" y2="128" stroke="#e0563f" stroke-width="5" stroke-linecap="round"/>
  <line x1="150" y1="146" x2="162" y2="146" stroke="#e0563f" stroke-width="5" stroke-linecap="round"/>
</svg>
